<svg width="920" height="1994" viewBox="0 0 920 1994" fill="none" xmlns="http://www.w3.org/2000/svg">
<g clip-path="url(#clip0_216_2257)">
<g clip-path="url(#clip1_216_2257)">
<path d="M920 -0.0200195H0V1993.98H920V-0.0200195Z" fill="url(#paint0_linear_216_2257)"/>
<g opacity="0.5">
<path d="M920 524.233V526.592C919.75 526.592 919.511 526.502 919.321 526.332L861.072 472.637C860.692 472.287 860.662 471.687 861.022 471.307C861.371 470.927 861.971 470.897 862.35 471.257L920 524.233Z" fill="url(#paint1_linear_216_2257)"/>
</g>
<g opacity="0.5">
<path d="M458.551 39.8464C458.232 40.2463 457.632 40.3263 457.223 39.9964L406.626 -0.0200195H409.832L458.402 38.5165C458.801 38.8465 458.881 39.4364 458.551 39.8464Z" fill="url(#paint2_linear_216_2257)"/>
</g>
<g opacity="0.4">
<path d="M489.18 57.7148C488.8 58.0748 488.28 58.0648 487.921 57.7248L427.294 0.679993H451.299L489.319 56.045C489.669 56.555 489.609 57.3049 489.18 57.7148Z" fill="url(#paint3_linear_216_2257)"/>
</g>
<g opacity="0.35">
<path d="M919.96 214.291V218.081L884.627 224.211C884.317 224.261 884.038 223.881 883.998 223.341C883.958 222.791 884.177 222.291 884.497 222.221L919.95 214.291H919.96Z" fill="url(#paint4_linear_216_2257)"/>
</g>
<g opacity="0.2">
<path d="M920 74.1233V78.9529L875.656 115.35C875.237 115.68 874.617 115.63 874.258 115.23C873.898 114.81 873.948 114.17 874.358 113.81L920 74.1233Z" fill="url(#paint5_linear_216_2257)"/>
</g>
<g opacity="0.2">
<path d="M338.806 440.87L7.15254 616.914C4.86492 618.134 2.42747 618.754 0 618.834V583.927L337.947 439.07C338.457 438.85 339.036 439.09 339.256 439.59C339.466 440.08 339.256 440.63 338.806 440.87Z" fill="url(#paint6_linear_216_2257)"/>
</g>
<g opacity="0.15">
<path d="M152.91 819.406L7.07262 1001.1C5.06471 1003.59 2.64724 1005.55 0 1006.98V947.114L151.472 818.016C151.892 817.656 152.521 817.706 152.88 818.126C153.2 818.506 153.2 819.036 152.91 819.406Z" fill="url(#paint7_linear_216_2257)"/>
</g>
<path opacity="0.12" d="M920 910.398V1653.9H395.707C379.993 1653.9 365.708 1644.96 358.626 1630.91C348.836 1611.5 343.332 1589.58 343.332 1566.36C343.332 1500.94 387.076 1445.75 446.874 1428.47C461.998 1424.1 469.99 1407.7 463.726 1393.24C453.037 1368.53 445.725 1341.99 442.368 1314.24C440.91 1302.28 440.191 1290.08 440.261 1277.71C440.281 1273.48 440.4 1269.26 440.61 1265.07C444.087 1194.74 473.186 1130.88 518.669 1082.65C545.121 1054.61 577.098 1031.87 612.811 1016.21C647.834 1000.85 686.444 992.32 726.921 992.3C733.654 992.3 740.307 992.54 746.911 993C783.413 942.785 842.591 910.118 909.391 910.118C912.947 910.118 916.484 910.208 920 910.398Z" fill="white"/>
<g opacity="0.6">
<path d="M355.139 781.02C396.656 830.905 434.996 884.23 471.798 937.625C572.403 1085.44 661 1242.45 736.451 1404.61C799.286 1538.83 853.06 1678.74 897.354 1820.22C905.585 1848.26 915.604 1879.95 923.117 1908.19L935.973 1955.36L937.582 1961.26C942.526 1980.9 948.79 2006.85 953.685 2026.55C958.09 2043.9 965.732 2080.62 969.688 2098.14L972.305 2110.08C972.735 2112.07 973.204 2114.06 973.594 2116.06L974.743 2122.06C978.029 2139.11 985.272 2177.05 988.558 2194.11L978.839 2195.81C975.642 2178.71 968.509 2140.14 965.472 2123.91C964.364 2117.41 961.966 2106.66 960.568 2100.03C956.702 2082.42 949.149 2045.2 945.024 2028.57C939.609 2006.49 933.446 1979.33 927.772 1957.48C923.127 1940.28 913.457 1903.23 908.832 1886.83C903.827 1869.81 896.684 1845.23 891.719 1828.31C852.92 1700.41 805.939 1573.42 751.805 1451.25C656.345 1235.88 539.657 1028.74 399.473 839.284C385.817 821.276 369.005 799.088 354.37 781.649L355.129 781L355.139 781.02Z" fill="white"/>
</g>
<path d="M824.6 1718.77C824.6 1736.44 822.422 1753.58 818.326 1769.97C813.941 1787.56 807.338 1804.27 798.836 1819.79C791.244 1833.61 776.759 1842.22 760.986 1842.22H0V1226.95C35.1134 1204.05 77.0496 1190.75 122.073 1190.75C180.781 1190.75 234.206 1213.37 274.154 1250.35C282.176 1257.79 293.773 1259.81 303.903 1255.65C334.841 1242.96 368.715 1235.96 404.238 1235.96C416.575 1235.96 428.723 1236.81 440.61 1238.45C485.364 1244.6 526.551 1261.97 561.254 1287.62C606.237 1320.87 640.322 1368.05 657.154 1422.79C664.736 1447.45 668.822 1473.65 668.822 1500.79C668.822 1505 670.141 1509.01 672.468 1512.31C674.796 1515.6 678.122 1518.18 682.108 1519.54C706.902 1527.98 729.619 1540.93 749.278 1557.41C772.024 1576.48 790.685 1600.27 803.731 1627.28C817.107 1654.94 824.6 1685.98 824.6 1718.77Z" fill="#B6E8FF"/>
<path d="M920 1388.69V1783.61H307.09C306.96 1783.38 306.82 1783.16 306.68 1782.93C293.973 1761.64 286.781 1736.65 287.13 1709.97C288.119 1632.09 352.302 1570.64 430.071 1572.96C445.145 1573.41 459.61 1576.27 473.106 1581.16C478.561 1583.14 484.255 1580.25 485.723 1574.63C486.313 1572.39 486.962 1570.17 487.691 1567.99C496.981 1539.81 517.27 1516.65 543.483 1503.58C548.987 1500.84 552.833 1495.57 553.542 1489.48C560.505 1430.1 601.882 1381.27 657.154 1363.5C666.185 1360.6 675.585 1358.52 685.265 1357.36C688.192 1357.01 691.139 1356.74 694.116 1356.56C697.083 1356.38 700.069 1356.29 703.086 1356.29H703.326C742.855 1356.29 778.817 1371.51 805.709 1396.4C811.124 1401.41 818.925 1402.77 825.748 1399.97C846.577 1391.42 869.383 1386.7 893.298 1386.7C902.368 1386.7 911.289 1387.38 920 1388.69Z" fill="#D0F4F7"/>
<g opacity="0.6">
<path d="M301.386 715.345L289.248 746.213C289.078 746.653 289.038 747.132 289.148 747.592L289.228 747.932C289.438 748.832 290.597 749.082 291.166 748.362L309.667 725.015L301.376 715.345H301.386Z" fill="white"/>
<path d="M305.861 711.496L338.187 704.176C338.647 704.076 339.126 704.116 339.566 704.286L339.895 704.416C340.744 704.766 340.824 705.946 340.025 706.406L314.162 721.165L305.871 711.496H305.861Z" fill="white"/>
<path d="M327.728 741.533C326.27 742.783 324.092 742.673 322.763 741.283L293.184 710.276C291.026 707.816 291.296 704.056 293.783 701.927C296.271 699.797 300.007 700.097 302.115 702.607L328.237 736.584C329.406 738.103 329.187 740.283 327.728 741.533Z" fill="white"/>
</g>
<path opacity="0.2" d="M221.299 1732.51C221.299 1732.51 517.89 1632.53 575.08 1633.3C632.27 1634.07 711.557 1671.46 744.343 1677.57C777.129 1683.68 221.299 1732.51 221.299 1732.51Z" fill="#AED097"/>
<path opacity="0.8" d="M344.49 1670.7C344.49 1670.7 42.5556 1531.8 -105.36 1528.75C-253.276 1525.7 -126.708 2000.4 -126.708 2000.4L294.163 2017.19L344.48 1670.7H344.49Z" fill="url(#paint8_linear_216_2257)"/>
<path d="M963.395 1845.21L942.377 1647.26L945.044 1479.15L886.085 1500.51V1512.76C843.07 1520.43 776.13 1533.75 733.724 1548.98C733.724 1548.98 671.2 1528.37 583.901 1552.03C583.901 1552.03 454.825 1522.08 447.263 1520.41C439.791 1518.75 432.639 1517.23 426.095 1515.93L426.075 1504.84L377.276 1487.55L267.481 1531.55V1565.07C243.756 1565.87 222.318 1570.12 213.637 1572.06C211.22 1572.6 209.491 1574.71 209.421 1577.18L208.522 1831.22L267.481 1826.72V1834.79L426.575 1842.68L426.555 1826.38L886.085 1842.51V1853.37L938.95 1863.55L939.25 1844.38L963.395 1845.23V1845.21Z" fill="#FFBF8A"/>
<path d="M568.267 1546.05V1720.3L406.626 1718.86L415.017 1506.36L568.267 1546.05Z" fill="#C9EFF2"/>
<path d="M743.164 1542.23L893.727 1503.56L895.745 1714.72L747.03 1719.29L743.164 1542.23Z" fill="#C9EFF2"/>
<path d="M618.205 1628.38H602.281V1783.56H618.205V1628.38Z" fill="#FFDE82"/>
<path d="M715.294 1627.62H699.37V1782.8H715.294V1627.62Z" fill="#FFDE82"/>
<path d="M416.545 1872.18H384.389V1509.92L416.545 1519.08V1872.18Z" fill="#C9EFF2"/>
<path d="M584.49 1546.56V1633.73C584.49 1633.73 686.064 1622.03 734.354 1631.36V1543.85C734.354 1543.85 665.985 1523.5 584.49 1546.56Z" fill="#F4F2E9"/>
<path d="M-53.2544 1837.58C-53.2544 1837.58 755.961 1750.07 983.684 1743.96L997.919 2205.94L-118.317 2189.66L-53.2544 1837.58Z" fill="url(#paint9_linear_216_2257)"/>
<path opacity="0.15" d="M920 0H0V1994H920V0Z" fill="url(#paint10_linear_216_2257)"/>
<path opacity="0.2" d="M660.72 461.188C765.501 461.188 850.443 376.166 850.443 271.285C850.443 166.405 765.501 81.3826 660.72 81.3826C555.94 81.3826 470.998 166.405 470.998 271.285C470.998 376.166 555.94 461.188 660.72 461.188Z" fill="#FFFF9B"/>
<path opacity="0.4" d="M660.721 429.541C748.04 429.541 818.826 358.688 818.826 271.285C818.826 183.883 748.04 113.03 660.721 113.03C573.402 113.03 502.616 183.883 502.616 271.285C502.616 358.688 573.402 429.541 660.721 429.541Z" fill="#FFFF9B"/>
<path d="M660.721 381.186C721.359 381.186 770.516 331.982 770.516 271.285C770.516 210.589 721.359 161.385 660.721 161.385C600.082 161.385 550.925 210.589 550.925 271.285C550.925 331.982 600.082 381.186 660.721 381.186Z" fill="#FFFF9B"/>
</g>
</g>
<defs>
<linearGradient id="paint0_linear_216_2257" x1="460" y1="-374.306" x2="460" y2="2046.67" gradientUnits="userSpaceOnUse">
<stop stop-color="#69AEFF"/>
<stop offset="0.19" stop-color="#71B6FF"/>
<stop offset="0.5" stop-color="#88CFFF"/>
<stop offset="0.76" stop-color="#A1E8FF"/>
<stop offset="0.82" stop-color="#A4E9FC"/>
<stop offset="0.87" stop-color="#AFECF5"/>
<stop offset="0.92" stop-color="#C2F1E9"/>
<stop offset="0.97" stop-color="#DCF9D8"/>
<stop offset="1" stop-color="#EEFFCD"/>
</linearGradient>
<linearGradient id="paint1_linear_216_2257" x1="860.772" y1="498.805" x2="920" y2="498.805" gradientUnits="userSpaceOnUse">
<stop stop-color="white" stop-opacity="0"/>
<stop offset="0.36" stop-color="white" stop-opacity="0.45"/>
<stop offset="0.82" stop-color="white"/>
</linearGradient>
<linearGradient id="paint2_linear_216_2257" x1="406.626" y1="20.0982" x2="458.761" y2="20.0982" gradientUnits="userSpaceOnUse">
<stop offset="0.18" stop-color="white"/>
<stop offset="0.64" stop-color="white" stop-opacity="0.45"/>
<stop offset="1" stop-color="white" stop-opacity="0"/>
</linearGradient>
<linearGradient id="paint3_linear_216_2257" x1="428.033" y1="29.3374" x2="497.551" y2="29.3374" gradientUnits="userSpaceOnUse">
<stop offset="0.18" stop-color="white"/>
<stop offset="0.64" stop-color="white" stop-opacity="0.45"/>
<stop offset="1" stop-color="white" stop-opacity="0"/>
</linearGradient>
<linearGradient id="paint4_linear_216_2257" x1="883.998" y1="219.261" x2="920.48" y2="219.261" gradientUnits="userSpaceOnUse">
<stop stop-color="white" stop-opacity="0"/>
<stop offset="0.36" stop-color="white" stop-opacity="0.45"/>
<stop offset="0.82" stop-color="white"/>
</linearGradient>
<linearGradient id="paint5_linear_216_2257" x1="874.018" y1="94.8514" x2="920.659" y2="94.8514" gradientUnits="userSpaceOnUse">
<stop stop-color="white" stop-opacity="0"/>
<stop offset="0.36" stop-color="white" stop-opacity="0.45"/>
<stop offset="0.82" stop-color="white"/>
</linearGradient>
<linearGradient id="paint6_linear_216_2257" x1="0.609364" y1="528.912" x2="354.19" y2="528.912" gradientUnits="userSpaceOnUse">
<stop offset="0.18" stop-color="white"/>
<stop offset="0.64" stop-color="white" stop-opacity="0.45"/>
<stop offset="1" stop-color="white" stop-opacity="0"/>
</linearGradient>
<linearGradient id="paint7_linear_216_2257" x1="1.30863" y1="912.378" x2="173.509" y2="912.378" gradientUnits="userSpaceOnUse">
<stop offset="0.18" stop-color="white"/>
<stop offset="0.64" stop-color="white" stop-opacity="0.45"/>
<stop offset="1" stop-color="white" stop-opacity="0"/>
</linearGradient>
<linearGradient id="paint8_linear_216_2257" x1="83.6826" y1="2298.2" x2="83.6826" y2="1326.59" gradientUnits="userSpaceOnUse">
<stop stop-color="#D0F4F7"/>
<stop offset="0.13" stop-color="#C8ECE2"/>
<stop offset="0.37" stop-color="#BDDFC1"/>
<stop offset="0.6" stop-color="#B4D7AA"/>
<stop offset="0.82" stop-color="#AFD19B"/>
<stop offset="1" stop-color="#AED097"/>
</linearGradient>
<linearGradient id="paint9_linear_216_2257" x1="428.183" y1="1744.51" x2="437.351" y2="2101.68" gradientUnits="userSpaceOnUse">
<stop stop-color="#F4F2E9"/>
<stop offset="0.38" stop-color="#E7E0D4"/>
<stop offset="1" stop-color="#D6C7B6"/>
</linearGradient>
<linearGradient id="paint10_linear_216_2257" x1="460" y1="-63.9342" x2="460" y2="1972.54" gradientUnits="userSpaceOnUse">
<stop stop-color="#80B3F9" stop-opacity="0.2"/>
<stop offset="0.62" stop-color="#80B3F9" stop-opacity="0.71"/>
<stop offset="1" stop-color="#80B4F9"/>
</linearGradient>
<clipPath id="clip0_216_2257">
<rect width="920" height="1994" fill="white"/>
</clipPath>
<clipPath id="clip1_216_2257">
<rect width="920" height="1994" fill="white"/>
</clipPath>
</defs>
</svg>
