<svg width="60" height="60" viewBox="0 0 60 60" fill="none" xmlns="http://www.w3.org/2000/svg">
<mask id="mask0_216_1152" style="mask-type:alpha" maskUnits="userSpaceOnUse" x="0" y="0" width="60" height="60">
<rect width="60" height="60" fill="#D9D9D9"/>
</mask>
<g mask="url(#mask0_216_1152)">
<path d="M29.991 51.5298C24.0138 51.5298 18.9326 49.4372 14.7475 45.252C10.5623 41.0668 8.46973 35.9849 8.46973 30.0061C8.46973 24.0273 10.5615 18.9373 14.7449 14.7362C18.9284 10.5351 24.0084 8.43457 29.9847 8.43457C30.4581 8.43457 30.9336 8.44951 31.4111 8.47938C31.8886 8.5093 32.3746 8.56592 32.8692 8.64926C31.5269 9.9518 30.453 11.4341 29.6478 13.0963C28.8425 14.7584 28.4399 16.5161 28.4399 18.3693C28.4399 22.0778 29.7239 25.2092 32.2919 27.7635C34.86 30.3178 38.008 31.5949 41.7362 31.5949C43.5423 31.5949 45.2823 31.1982 46.9562 30.4047C48.6301 29.6112 50.1066 28.5433 51.3855 27.2009C51.4453 27.6955 51.4902 28.1663 51.5201 28.6134C51.55 29.0605 51.5649 29.5158 51.5649 29.9794C51.5649 35.9499 49.4635 41.0343 45.2608 45.2324C41.0581 49.4307 35.9681 51.5298 29.991 51.5298ZM29.9997 45.4046C32.804 45.4046 35.4089 44.6595 37.8144 43.1691C40.2199 41.6788 42.0896 39.6948 43.4235 37.2173C42.8256 37.3314 42.2348 37.4261 41.6509 37.5013C41.0669 37.5764 40.4948 37.5904 39.9344 37.5433C35.2845 37.1429 31.3209 35.3335 28.0435 32.1149C24.7661 28.8964 22.9036 24.868 22.4562 20.0298C22.4326 19.4694 22.4525 18.8972 22.5159 18.3133C22.5793 17.7294 22.6799 17.1503 22.8175 16.576C20.3635 17.9334 18.3796 19.8149 16.8657 22.2204C15.3518 24.6259 14.5949 27.2191 14.5949 29.9998C14.5949 34.2807 16.0921 37.9184 19.0866 40.9129C22.0811 43.9074 25.7188 45.4046 29.9997 45.4046Z" fill="#292A2E"/>
</g>
</svg>
