<svg width="32" height="32" viewBox="0 0 32 32" fill="none" xmlns="http://www.w3.org/2000/svg">
<mask id="mask0_257_3908" style="mask-type:alpha" maskUnits="userSpaceOnUse" x="0" y="0" width="32" height="32">
<rect width="32" height="32" fill="#D9D9D9"/>
</mask>
<g mask="url(#mask0_257_3908)">
<path d="M14.9391 25.7173C14.6521 25.4303 14.5031 25.0754 14.492 24.6524C14.4809 24.2295 14.6188 23.8745 14.9058 23.5876L20.9768 17.5166H6.7304C6.3048 17.5166 5.94562 17.3702 5.65286 17.0774C5.36011 16.7847 5.21373 16.4255 5.21373 15.9999C5.21373 15.5743 5.36011 15.2151 5.65286 14.9224C5.94562 14.6296 6.3048 14.4832 6.7304 14.4832H20.9768L14.9058 8.40425C14.6188 8.11729 14.4809 7.76366 14.492 7.34335C14.5031 6.92306 14.6521 6.56944 14.9391 6.28248C15.2261 5.99553 15.581 5.85205 16.004 5.85205C16.4269 5.85205 16.7818 5.99553 17.0688 6.28248L25.7333 14.939C25.8879 15.0714 25.997 15.2315 26.0605 15.4195C26.124 15.6074 26.1558 15.8008 26.1558 15.9999C26.1558 16.1989 26.124 16.3869 26.0605 16.5637C25.997 16.7405 25.8879 16.9062 25.7333 17.0608L17.0688 25.7253C16.7818 26.0122 16.4269 26.1544 16.004 26.1517C15.581 26.149 15.2261 26.0042 14.9391 25.7173Z" fill="#292A2E"/>
</g>
</svg>
