<svg width="920" height="1994" viewBox="0 0 920 1994" fill="none" xmlns="http://www.w3.org/2000/svg">
<g clip-path="url(#clip0_149_257)">
<path d="M920 -0.0100098H0V1993.99H920V-0.0100098Z" fill="url(#paint0_linear_149_257)"/>
<path opacity="0.2" d="M570.914 431.331C570.914 433.221 570.495 435.011 569.755 436.611C569.266 437.67 568.197 438.34 567.028 438.34H511.286C509.978 438.34 508.749 437.66 508.08 436.531C506.491 433.881 505.582 430.791 505.582 427.481C505.582 418.892 511.726 411.743 519.857 410.193C520.727 410.023 521.416 409.363 521.606 408.493C523.444 400.024 530.976 393.684 539.986 393.684C550.306 393.684 558.777 402.144 558.797 412.473C558.797 414.453 558.497 416.362 557.938 418.162C557.838 418.472 558.078 418.792 558.407 418.792C565.33 418.792 570.934 424.412 570.934 431.331H570.914Z" fill="white"/>
<path opacity="0.2" d="M919.261 883.59C921.598 878.201 922.867 872.241 922.837 865.982C922.707 842.034 903.078 822.496 879.153 822.486C878.124 822.486 877.115 822.526 876.106 822.596C870.542 814.946 861.521 809.967 851.342 809.967C845.947 809.967 840.893 811.367 836.487 813.817C835.109 814.586 833.38 813.906 832.881 812.407C826.308 792.528 807.727 778.12 785.74 777.79C757.659 777.37 734.494 800.188 734.494 828.305C734.494 832.315 734.963 836.214 735.842 839.964C736.292 841.864 734.803 843.674 732.855 843.604C732.176 843.574 731.497 843.564 730.807 843.564C710.249 843.564 692.368 855.033 683.197 871.921C682.388 873.401 680.71 874.151 679.051 873.821C676.814 873.371 674.506 873.141 672.149 873.141C671.529 873.141 670.92 873.161 670.311 873.191C668.862 873.261 667.454 872.691 666.485 871.621C659.192 863.622 648.693 858.602 637.025 858.602C615.008 858.602 597.157 876.471 597.157 898.509C597.157 899.209 597.177 899.899 597.207 900.579C597.297 902.309 596.228 903.908 594.59 904.478C588.246 906.688 583.371 912.008 581.773 918.617V918.637C581.723 918.777 581.533 919.337 581.493 920.027C581.413 921.417 581.933 923.327 585.439 923.327H929.64C932.037 923.327 934.215 921.967 935.294 919.827C936.783 916.867 937.622 913.528 937.622 909.988C937.622 900.019 930.959 891.609 921.838 888.97C919.531 888.3 918.312 885.8 919.271 883.6L919.261 883.59Z" fill="url(#paint1_linear_149_257)"/>
<path opacity="0.2" d="M-99.1867 231.619C-101.544 226.17 -102.833 220.14 -102.803 213.821C-102.673 189.613 -82.8237 169.845 -58.629 169.845C-57.5901 169.845 -56.5611 169.885 -55.5522 169.955C-49.9281 162.215 -40.8076 157.186 -30.5183 157.186C-25.064 157.186 -19.9494 158.596 -15.504 161.075C-14.1054 161.855 -12.3573 161.165 -11.8578 159.646C-5.20474 139.537 13.5757 124.979 35.8125 124.649C64.2128 124.219 87.6284 147.297 87.6284 175.724C87.6284 179.784 87.1589 183.723 86.2598 187.513C85.8103 189.433 87.3087 191.263 89.2867 191.193C89.9759 191.163 90.6652 191.153 91.3545 191.153C112.143 191.153 130.224 202.752 139.494 219.82C140.303 221.32 142.012 222.07 143.68 221.74C145.938 221.29 148.275 221.05 150.663 221.05C151.282 221.05 151.911 221.07 152.521 221.1C153.979 221.18 155.408 220.6 156.387 219.51C163.759 211.421 174.378 206.351 186.176 206.351C208.432 206.351 226.484 224.42 226.484 246.708C226.484 247.408 226.464 248.108 226.434 248.808C226.344 250.557 227.423 252.167 229.081 252.747C235.494 254.977 240.429 260.356 242.037 267.036C242.037 267.036 242.037 267.056 242.037 267.066C242.087 267.216 242.277 267.776 242.317 268.466C242.397 269.876 241.867 271.805 238.331 271.805C230.399 271.805 217.733 271.805 217.733 271.805H-109.666C-112.083 271.805 -114.291 270.426 -115.38 268.266C-116.888 265.276 -117.737 261.896 -117.737 258.317C-117.737 248.238 -110.994 239.728 -101.784 237.069C-99.4564 236.399 -98.2277 233.869 -99.1867 231.639V231.619Z" fill="url(#paint2_linear_149_257)"/>
<path opacity="0.4" d="M494.791 1807.99C603.299 1796.46 684.565 1723.98 676.305 1646.1C668.045 1568.22 573.386 1514.43 464.879 1525.96C356.371 1537.49 275.105 1609.98 283.365 1687.86C291.625 1765.74 386.284 1819.52 494.791 1807.99Z" fill="url(#paint3_radial_149_257)"/>
<path opacity="0.8" d="M914.895 405.593C914.895 415.083 912.478 424.002 908.222 431.771C906.254 435.351 902.498 437.59 898.412 437.59H587.277C584.59 437.59 582.113 436.201 580.684 433.921C580.604 433.791 580.524 433.661 580.444 433.531C575.34 425.222 572.443 415.412 572.582 404.903C572.962 374.926 597.666 351.258 627.615 352.158C633.419 352.338 638.983 353.438 644.178 355.318C646.276 356.078 648.473 354.968 649.043 352.808C652.179 340.819 660.401 330.88 671.279 325.461C673.397 324.401 674.876 322.381 675.155 320.031C678.542 291.154 703.066 268.756 732.815 268.756C748.029 268.756 761.875 274.615 772.234 284.204C774.312 286.134 777.319 286.654 779.946 285.574C787.968 282.285 796.749 280.475 805.949 280.475C843.819 280.475 874.527 311.212 874.527 349.118C874.527 350.208 874.867 351.248 875.476 352.108C876.076 352.958 876.945 353.628 877.974 353.988C899.451 361.297 914.905 381.656 914.905 405.623L914.895 405.593Z" fill="url(#paint4_linear_149_257)"/>
<path opacity="0.6" d="M16.5627 744.553C16.5627 749.132 17.7315 753.432 19.7794 757.172C20.7284 758.901 22.5365 759.981 24.5044 759.981H174.518C175.817 759.981 177.005 759.311 177.695 758.212C180.222 754.162 181.67 749.362 181.601 744.223C181.421 729.764 169.503 718.365 155.068 718.795C152.271 718.875 149.584 719.405 147.077 720.315C146.068 720.685 145.009 720.145 144.729 719.105C143.221 713.316 139.245 708.526 134.01 705.916C132.991 705.406 132.272 704.426 132.142 703.296C130.514 689.378 118.686 678.579 104.341 678.579C97.0088 678.579 90.3258 681.398 85.341 686.028C84.332 686.958 82.8835 687.208 81.6248 686.688C77.7589 685.098 73.5233 684.228 69.0879 684.228C50.827 684.228 36.0224 699.047 36.0224 717.325C36.0224 718.385 35.3631 719.325 34.3642 719.665C24.005 723.185 16.5527 733.004 16.5527 744.563L16.5627 744.553Z" fill="url(#paint5_linear_149_257)"/>
<path opacity="0.6" d="M195.855 755.412C195.855 756.642 196.125 757.802 196.615 758.852C196.934 759.541 197.624 759.981 198.383 759.981H234.625C235.474 759.981 236.273 759.541 236.713 758.802C237.742 757.082 238.341 755.072 238.341 752.912C238.341 747.323 234.345 742.673 229.061 741.673C228.491 741.563 228.052 741.133 227.932 740.573C226.733 735.064 221.838 730.944 215.984 730.944C209.271 730.944 203.767 736.444 203.757 743.163C203.757 744.453 203.947 745.693 204.317 746.863C204.377 747.063 204.227 747.273 204.017 747.273C199.522 747.273 195.865 750.922 195.865 755.432L195.855 755.412Z" fill="url(#paint6_linear_149_257)"/>
<path opacity="0.04" d="M350.564 1721.87L-30.0686 1424.22L-47.1108 1371.54L362.801 1717.9L350.564 1721.87Z" fill="#FFEAA3"/>
<path opacity="0.08" d="M354.06 1721.49L-13.426 1151.97L-75.6411 861.702L381.742 1715.55L354.06 1721.49Z" fill="#FFEAA3"/>
<path opacity="0.03" d="M745.862 1680.67L1045.09 1072.42L987.839 762.851L632.15 1663.9L745.862 1680.67Z" fill="#FFEAA3"/>
<path opacity="0.15" d="M393.829 1671.6L101.244 308.232L361.093 258.667L449.391 1661L393.829 1671.6Z" fill="url(#paint7_linear_149_257)"/>
<path opacity="0.1" d="M451.249 1665.5L330.185 127.918L648.353 94.1215L540.366 1656.03L451.249 1665.5Z" fill="url(#paint8_linear_149_257)"/>
<path opacity="0.2" d="M676.004 1492.92C674.046 1498.37 671.439 1503.44 668.282 1508.07C668.792 1502.48 670.001 1496.91 671.959 1491.46C673.917 1486 676.524 1480.93 679.691 1476.3C679.181 1481.89 677.962 1487.46 676.004 1492.92Z" fill="#FFFF74"/>
<path opacity="0.2" d="M712.526 1402.5C705.104 1423.16 695.784 1442.53 684.855 1460.44C687.792 1439.66 692.917 1418.78 700.339 1398.12C707.761 1377.47 717.082 1358.1 728.03 1340.2C725.073 1360.98 719.949 1381.85 712.526 1402.51V1402.5Z" fill="#FFFF74"/>
<path opacity="0.1" d="M844.289 1065.71C825.259 1118.73 804.121 1169.41 781.385 1217.27C794.251 1165.86 810.194 1113.31 829.235 1060.29C848.265 1007.28 869.403 956.594 892.169 908.748C879.272 960.143 863.329 1012.7 844.299 1065.71H844.289Z" fill="#FFFFA6"/>
<g style="mix-blend-mode:lighten" opacity="0.05">
<path d="M96.3493 907.938C101.834 929.196 109.326 949.334 118.566 968.183C117.557 947.215 114.38 925.956 108.896 904.698C103.412 883.44 95.9098 863.302 86.6594 844.464C87.6884 865.422 90.865 886.68 96.3493 907.938Z" fill="#FFFF74"/>
</g>
<path opacity="0.2" d="M115.819 1457.8C127.836 1472.25 141.252 1484.89 155.757 1495.69C147.776 1479.45 137.786 1463.95 125.769 1449.5C113.751 1435.05 100.335 1422.41 85.8103 1411.61C93.812 1427.85 103.802 1443.35 115.819 1457.8Z" fill="#FFFF74"/>
<g style="mix-blend-mode:lighten" opacity="0.05">
<path d="M130.004 1026.57C132.372 1035.76 135.618 1044.48 139.614 1052.61C139.175 1043.55 137.806 1034.36 135.429 1025.17C133.061 1015.98 129.814 1007.26 125.819 999.12C126.268 1008.18 127.637 1017.38 130.014 1026.57H130.004Z" fill="#FFFF74"/>
</g>
<path opacity="0.3" d="M487.313 1737.49C541.567 1731.72 582.2 1695.48 578.07 1656.54C573.94 1617.6 526.61 1590.71 472.357 1596.47C418.103 1602.24 377.47 1638.48 381.6 1677.42C385.73 1716.36 433.059 1743.25 487.313 1737.49Z" fill="url(#paint9_radial_149_257)"/>
<path opacity="0.3" d="M211.809 1630.93C211.809 1630.93 508.399 1530.95 565.59 1531.72C622.78 1532.49 702.067 1569.88 734.853 1575.99C767.639 1582.1 211.809 1630.93 211.809 1630.93Z" fill="#A15555"/>
<path opacity="0.4" d="M344.48 1670.7C344.48 1670.7 42.5455 1531.8 -105.37 1528.75C-253.286 1525.7 -126.718 2000.4 -126.718 2000.4L294.153 2017.19L344.47 1670.7H344.48Z" fill="url(#paint10_linear_149_257)"/>
<path opacity="0.5" d="M498.531 1843.25C634.162 1828.84 735.743 1738.23 725.417 1640.88C715.092 1543.53 596.77 1476.29 461.139 1490.7C325.508 1505.12 223.927 1595.72 234.253 1693.07C244.578 1790.43 362.9 1857.66 498.531 1843.25Z" fill="url(#paint11_radial_149_257)"/>
<path d="M927.362 1505.85C927.362 1505.85 800.305 1525.06 733.714 1548.97C733.714 1548.97 671.19 1528.36 583.891 1552.02C583.891 1552.02 454.825 1522.07 447.253 1520.4C424.207 1515.3 404.218 1511.46 395.777 1511.36C395.777 1511.36 278.909 1539.31 278.909 1542.32V1821.19L963.395 1845.22L927.372 1505.86L927.362 1505.85Z" fill="#FFBB78"/>
<path d="M568.257 1546.05V1720.3L406.616 1718.86L415.007 1506.36L568.257 1546.05Z" fill="#FFDAB5"/>
<path d="M886.075 1853.35V1500.51L945.034 1479.15L938.94 1863.53L886.075 1853.35Z" fill="#FFBB78"/>
<path d="M743.154 1542.23L893.717 1503.56L895.735 1714.72L747.02 1719.29L743.154 1542.23Z" fill="#FFDAB5"/>
<path d="M618.195 1628.38H602.271V1783.56H618.195V1628.38Z" fill="#FFD78F"/>
<path d="M715.283 1627.62H699.36V1782.8H715.283V1627.62Z" fill="#FFD78F"/>
<path d="M426.565 1842.67L426.055 1504.83L377.266 1487.54L267.471 1531.55V1834.78L426.565 1842.67Z" fill="#FFBB78"/>
<path d="M416.525 1872.18H387.935V1509.92L416.525 1519.08V1872.18Z" fill="#FFDAB5"/>
<path d="M584.48 1546.56V1633.73C584.48 1633.73 686.054 1622.03 734.344 1631.36V1543.85C734.344 1543.85 665.975 1523.5 584.48 1546.56Z" fill="#FFECD3"/>
<path d="M209.411 1577.18C209.481 1574.71 211.209 1572.59 213.627 1572.06C228.192 1568.81 278.569 1559.05 315.511 1569.97C359.185 1582.87 336.479 1821.44 336.479 1821.44L208.512 1831.23L209.411 1577.19V1577.18Z" fill="#FFBB78"/>
<path opacity="0.5" d="M208.762 1655.62V1868.29H925.724V1604.49C925.724 1604.49 565.34 1606.01 208.762 1655.62Z" fill="url(#paint12_linear_149_257)"/>
<path d="M-53.2746 1837.58C-53.2746 1837.58 755.941 1750.07 983.663 1743.96L997.899 2205.94L-118.337 2189.66L-53.2746 1837.58Z" fill="url(#paint13_linear_149_257)"/>
</g>
<defs>
<linearGradient id="paint0_linear_149_257" x1="460" y1="-193.513" x2="460" y2="2155.95" gradientUnits="userSpaceOnUse">
<stop stop-color="#DF254E"/>
<stop offset="0.11" stop-color="#E0274D"/>
<stop offset="0.22" stop-color="#E33446"/>
<stop offset="0.42" stop-color="#ED5636"/>
<stop offset="0.69" stop-color="#FE8E1D"/>
<stop offset="0.7" stop-color="#FF911C"/>
<stop offset="0.77" stop-color="#FE921F"/>
<stop offset="0.82" stop-color="#FD9829"/>
<stop offset="0.87" stop-color="#FBA139"/>
<stop offset="0.91" stop-color="#F8AF51"/>
<stop offset="0.95" stop-color="#F4C070"/>
<stop offset="0.99" stop-color="#EFD595"/>
<stop offset="1" stop-color="#EFDA9D"/>
</linearGradient>
<linearGradient id="paint1_linear_149_257" x1="820.694" y1="735.464" x2="693.219" y2="1111.91" gradientUnits="userSpaceOnUse">
<stop offset="0.06" stop-color="#FFA6B2" stop-opacity="0.5"/>
<stop offset="0.47" stop-color="#FFBFCF" stop-opacity="0.8"/>
<stop offset="0.62" stop-color="#FFC4C8" stop-opacity="0.86"/>
<stop offset="0.86" stop-color="#FFCFBA"/>
</linearGradient>
<linearGradient id="paint2_linear_149_257" x1="16.4027" y1="8.01929" x2="90.332" y2="419.948" gradientUnits="userSpaceOnUse">
<stop offset="0.06" stop-color="#FFA6B2" stop-opacity="0.5"/>
<stop offset="0.47" stop-color="#FFBFCF" stop-opacity="0.8"/>
<stop offset="0.62" stop-color="#FFC4C8" stop-opacity="0.86"/>
<stop offset="0.86" stop-color="#FFCFBA"/>
</linearGradient>
<radialGradient id="paint3_radial_149_257" cx="0" cy="0" r="1" gradientUnits="userSpaceOnUse" gradientTransform="translate(479.323 1668.24) rotate(-6.06573) scale(197.84 140.417)">
<stop stop-color="#FFDB53"/>
<stop offset="0.1" stop-color="#FFDB53" stop-opacity="0.93"/>
<stop offset="0.3" stop-color="#FFDB53" stop-opacity="0.75"/>
<stop offset="0.59" stop-color="#FFDB53" stop-opacity="0.47"/>
<stop offset="0.94" stop-color="#FFDB53" stop-opacity="0.07"/>
<stop offset="1" stop-color="#FFDB53" stop-opacity="0"/>
</radialGradient>
<linearGradient id="paint4_linear_149_257" x1="786.899" y1="251.947" x2="724.123" y2="475.066" gradientUnits="userSpaceOnUse">
<stop offset="0.06" stop-color="#FFA6B2" stop-opacity="0.5"/>
<stop offset="0.47" stop-color="#FFBFCF" stop-opacity="0.8"/>
<stop offset="0.62" stop-color="#FFC4C8" stop-opacity="0.86"/>
<stop offset="0.86" stop-color="#FFCFBA"/>
</linearGradient>
<linearGradient id="paint5_linear_149_257" x1="101.124" y1="659.7" x2="97.8116" y2="797.378" gradientUnits="userSpaceOnUse">
<stop offset="0.05" stop-color="#FFDBF4" stop-opacity="0.6"/>
<stop offset="0.4" stop-color="#FFDBE4" stop-opacity="0.8"/>
<stop offset="0.54" stop-color="#FFDEE1" stop-opacity="0.86"/>
<stop offset="0.77" stop-color="#FFE6DB"/>
<stop offset="1" stop-color="#FFF7DB"/>
</linearGradient>
<linearGradient id="paint6_linear_149_257" x1="216.764" y1="711.766" x2="217.424" y2="796.488" gradientUnits="userSpaceOnUse">
<stop offset="0.05" stop-color="#FFDBF4" stop-opacity="0.6"/>
<stop offset="0.4" stop-color="#FFDBE4" stop-opacity="0.8"/>
<stop offset="0.54" stop-color="#FFDEE1" stop-opacity="0.86"/>
<stop offset="0.77" stop-color="#FFE6DB"/>
<stop offset="1" stop-color="#FFF7DB"/>
</linearGradient>
<linearGradient id="paint7_linear_149_257" x1="482.49" y1="1918.87" x2="210.967" y2="307.256" gradientUnits="userSpaceOnUse">
<stop stop-color="#FFEAA3"/>
<stop offset="0.02" stop-color="#FFEAA3" stop-opacity="0.96"/>
<stop offset="0.14" stop-color="#FFEAA3" stop-opacity="0.74"/>
<stop offset="0.25" stop-color="#FFEAA3" stop-opacity="0.54"/>
<stop offset="0.37" stop-color="#FFEAA3" stop-opacity="0.37"/>
<stop offset="0.49" stop-color="#FFEAA3" stop-opacity="0.24"/>
<stop offset="0.61" stop-color="#FFEAA3" stop-opacity="0.13"/>
<stop offset="0.74" stop-color="#FFEAA3" stop-opacity="0.06"/>
<stop offset="0.87" stop-color="#FFEAA3" stop-opacity="0.01"/>
<stop offset="1" stop-color="#FFEAA3" stop-opacity="0"/>
</linearGradient>
<linearGradient id="paint8_linear_149_257" x1="632.682" y1="1938.82" x2="490.646" y2="132.03" gradientUnits="userSpaceOnUse">
<stop stop-color="#FFEAA3"/>
<stop offset="0.12" stop-color="#FFEAA3" stop-opacity="0.78"/>
<stop offset="0.24" stop-color="#FFEAA3" stop-opacity="0.58"/>
<stop offset="0.37" stop-color="#FFEAA3" stop-opacity="0.4"/>
<stop offset="0.5" stop-color="#FFEAA3" stop-opacity="0.26"/>
<stop offset="0.63" stop-color="#FFEAA3" stop-opacity="0.14"/>
<stop offset="0.75" stop-color="#FFEAA3" stop-opacity="0.06"/>
<stop offset="0.88" stop-color="#FFEAA3" stop-opacity="0.02"/>
<stop offset="1" stop-color="#FFEAA3" stop-opacity="0"/>
</linearGradient>
<radialGradient id="paint9_radial_149_257" cx="0" cy="0" r="1" gradientUnits="userSpaceOnUse" gradientTransform="translate(406.796 984.424) rotate(-6.06573) scale(98.9198 70.2086)">
<stop stop-color="#FFDB53"/>
<stop offset="0.1" stop-color="#FFDB53" stop-opacity="0.93"/>
<stop offset="0.3" stop-color="#FFDB53" stop-opacity="0.75"/>
<stop offset="0.59" stop-color="#FFDB53" stop-opacity="0.47"/>
<stop offset="0.94" stop-color="#FFDB53" stop-opacity="0.07"/>
<stop offset="1" stop-color="#FFDB53" stop-opacity="0"/>
</radialGradient>
<linearGradient id="paint10_linear_149_257" x1="83.6626" y1="1565.38" x2="83.6626" y2="1930.19" gradientUnits="userSpaceOnUse">
<stop stop-color="#A15555"/>
<stop offset="0.18" stop-color="#A15555" stop-opacity="0.98"/>
<stop offset="0.34" stop-color="#A15555" stop-opacity="0.91"/>
<stop offset="0.49" stop-color="#A15555" stop-opacity="0.8"/>
<stop offset="0.63" stop-color="#A15555" stop-opacity="0.64"/>
<stop offset="0.77" stop-color="#A15555" stop-opacity="0.44"/>
<stop offset="0.91" stop-color="#A15555" stop-opacity="0.2"/>
<stop offset="1" stop-color="#A15555" stop-opacity="0"/>
</linearGradient>
<radialGradient id="paint11_radial_149_257" cx="0" cy="0" r="1" gradientUnits="userSpaceOnUse" gradientTransform="translate(406.796 984.424) rotate(-6.06573) scale(247.289 175.514)">
<stop stop-color="#FFDB53"/>
<stop offset="0.1" stop-color="#FFDB53" stop-opacity="0.93"/>
<stop offset="0.3" stop-color="#FFDB53" stop-opacity="0.75"/>
<stop offset="0.59" stop-color="#FFDB53" stop-opacity="0.47"/>
<stop offset="0.94" stop-color="#FFDB53" stop-opacity="0.07"/>
<stop offset="1" stop-color="#FFDB53" stop-opacity="0"/>
</radialGradient>
<linearGradient id="paint12_linear_149_257" x1="567.238" y1="1619.24" x2="567.238" y2="2022.72" gradientUnits="userSpaceOnUse">
<stop stop-color="#FF812B" stop-opacity="0"/>
<stop offset="0.09" stop-color="#FF812B" stop-opacity="0.05"/>
<stop offset="0.24" stop-color="#FF812B" stop-opacity="0.17"/>
<stop offset="0.45" stop-color="#FF812B" stop-opacity="0.37"/>
<stop offset="0.71" stop-color="#FF812B" stop-opacity="0.64"/>
<stop offset="0.99" stop-color="#FF812B" stop-opacity="0.99"/>
<stop offset="1" stop-color="#FF812B"/>
</linearGradient>
<linearGradient id="paint13_linear_149_257" x1="439.781" y1="1762.28" x2="439.781" y2="2269.52" gradientUnits="userSpaceOnUse">
<stop stop-color="#F8CA85"/>
<stop offset="0.4" stop-color="#F2B370"/>
<stop offset="1" stop-color="#EB9555"/>
</linearGradient>
<clipPath id="clip0_149_257">
<rect width="920" height="1994" fill="white"/>
</clipPath>
</defs>
</svg>
