<svg width="60" height="60" viewBox="0 0 60 60" fill="none" xmlns="http://www.w3.org/2000/svg">
<mask id="mask0_216_1157" style="mask-type:alpha" maskUnits="userSpaceOnUse" x="0" y="0" width="60" height="60">
<rect width="60" height="60" fill="#D9D9D9"/>
</mask>
<g mask="url(#mask0_216_1157)">
<path d="M30.0041 35.875C31.6372 35.875 33.0239 35.3034 34.1644 34.1602C35.3047 33.0171 35.8749 31.629 35.8749 29.9959C35.8749 28.3629 35.3033 26.9761 34.1602 25.8357C33.017 24.6953 31.6289 24.1251 29.9959 24.1251C28.3628 24.1251 26.976 24.6967 25.8357 25.8399C24.6953 26.983 24.125 28.3711 24.125 30.0042C24.125 31.6373 24.6966 33.024 25.8398 34.1644C26.983 35.3048 28.3711 35.875 30.0041 35.875ZM29.9859 42.0001C26.6619 42.0001 23.8333 40.8287 21.5 38.4859C19.1667 36.1432 18 33.3099 18 29.9859C18 26.662 19.1714 23.8334 21.5141 21.5001C23.8569 19.1667 26.6902 18.0001 30.0141 18.0001C33.338 18.0001 36.1667 19.1714 38.5 21.5142C40.8333 23.8569 42 26.6903 42 30.0142C42 33.3381 40.8286 36.1667 38.4859 38.5001C36.1431 40.8334 33.3098 42.0001 29.9859 42.0001ZM14.3126 33.0626H2.18742V26.9375H14.3126V33.0626ZM57.8125 33.0626H45.6874V26.9375H57.8125V33.0626ZM26.9374 14.3126V2.1875H33.0625V14.3126H26.9374ZM26.9374 57.8126V45.6875H33.0625V57.8126H26.9374ZM16.7772 21.0762L9.24449 13.6957L13.5272 9.05706L21.1033 16.6169L16.7772 21.0762ZM46.4728 50.6931L38.9592 43.3207L43.1875 38.9321L50.7555 46.3044L46.4728 50.6931ZM38.8695 16.8126L46.3044 9.36956L50.693 13.5272L43.3831 21.1659L38.8695 16.8126ZM9.05699 46.4729L16.6794 39.0842L20.943 43.1876L13.7581 50.8181L9.05699 46.4729Z" fill="#F4F4F5"/>
</g>
</svg>
