<svg width="32" height="32" viewBox="0 0 32 32" fill="none" xmlns="http://www.w3.org/2000/svg">
<mask id="mask0_257_3905" style="mask-type:alpha" maskUnits="userSpaceOnUse" x="0" y="0" width="32" height="32">
<rect width="32" height="32" fill="#D9D9D9"/>
</mask>
<g mask="url(#mask0_257_3905)">
<path d="M14.3008 25.7176L5.63633 17.0611C5.48707 16.9118 5.37933 16.7474 5.31313 16.568C5.24696 16.3885 5.21387 16.1992 5.21387 16.0002C5.21387 15.8012 5.24696 15.6119 5.31313 15.4324C5.37933 15.253 5.48707 15.0886 5.63633 14.9393L14.3008 6.27483C14.5825 5.99319 14.9319 5.84814 15.349 5.8397C15.7662 5.83123 16.1267 5.97893 16.4305 6.2828C16.7344 6.56976 16.8919 6.92049 16.903 7.335C16.9141 7.74949 16.7677 8.10867 16.4639 8.41253L10.3929 14.4835H24.6392C25.0648 14.4835 25.424 14.6299 25.7168 14.9227C26.0095 15.2154 26.1559 15.5746 26.1559 16.0002C26.1559 16.4258 26.0095 16.785 25.7168 17.0777C25.424 17.3705 25.0648 17.5169 24.6392 17.5169H10.3929L16.4639 23.5879C16.7455 23.8695 16.8919 24.2231 16.903 24.6487C16.9141 25.0744 16.7677 25.4306 16.4639 25.7176C16.1769 26.0215 15.8206 26.1734 15.395 26.1734C14.9694 26.1734 14.6047 26.0215 14.3008 25.7176Z" fill="#292A2E"/>
</g>
</svg>
