<svg width="60" height="60" viewBox="0 0 60 60" fill="none" xmlns="http://www.w3.org/2000/svg">
<mask id="mask0_216_1160" style="mask-type:alpha" maskUnits="userSpaceOnUse" x="0" y="0" width="60" height="60">
<rect width="60" height="60" fill="#D9D9D9"/>
</mask>
<g mask="url(#mask0_216_1160)">
<path d="M15.1062 49.2011C11.4416 49.2011 8.3253 47.9284 5.75722 45.3831C3.18909 42.8379 1.90503 39.7455 1.90503 36.106C1.90503 32.7037 3.00603 29.7345 5.20803 27.1983C7.41003 24.6621 10.156 23.2662 13.4458 23.0108C14.5455 19.3749 16.6021 16.4306 19.6157 14.1779C22.6293 11.9252 26.0908 10.7988 30.0002 10.7988C34.4096 10.7988 38.2742 12.2585 41.594 15.1779C44.9137 18.0973 46.8906 21.7082 47.5247 26.0108C50.5121 26.2698 53.0207 27.5027 55.0505 29.7092C57.0805 31.9157 58.0954 34.548 58.0954 37.606C58.0954 40.8268 56.9681 43.5646 54.7135 45.8192C52.4588 48.0738 49.7211 49.2011 46.5002 49.2011H15.1062ZM15.1062 43.076H46.3942C47.9196 43.076 49.2303 42.528 50.3263 41.432C51.4223 40.336 51.9703 39.0253 51.9703 37.5C51.9703 35.9746 51.4223 34.6639 50.3263 33.5679C49.2303 32.4719 47.9196 31.9239 46.3942 31.9239H41.8453L41.4703 27.3315C41.1786 24.3947 39.9386 21.926 37.7503 19.9251C35.5619 17.9243 32.9786 16.9239 30.0002 16.9239C27.4278 16.9239 25.1438 17.7377 23.1483 19.3655C21.1529 20.9932 19.801 23.096 19.0927 25.6739L18.2177 28.7364L14.6062 28.9239C12.7233 29.0489 11.1566 29.7887 9.90597 31.1433C8.65543 32.4979 8.03015 34.1165 8.03015 35.9993C8.03015 37.9653 8.71793 39.6363 10.0935 41.0121C11.4691 42.3881 13.14 43.076 15.1062 43.076Z" fill="#F4F4F5"/>
</g>
</svg>
