<svg width="920" height="1994" viewBox="0 0 920 1994" fill="none" xmlns="http://www.w3.org/2000/svg">
<g clip-path="url(#clip0_216_2339)">
<g clip-path="url(#clip1_216_2339)">
<path d="M919.76 -0.309998H-0.349609V1994.29H919.76V-0.309998Z" fill="url(#paint0_linear_216_2339)"/>
<path opacity="0.15" d="M919.76 -0.309998H-0.349609V1994.29H919.76V-0.309998Z" fill="#4B0094"/>
<path opacity="0.4" d="M494.513 1807.99C603.02 1796.46 684.287 1723.98 676.027 1646.1C667.767 1568.22 573.108 1514.43 464.601 1525.96C356.093 1537.49 274.827 1609.98 283.087 1687.86C291.347 1765.74 386.006 1819.52 494.513 1807.99Z" fill="url(#paint1_radial_216_2339)"/>
<path opacity="0.3" d="M487.035 1737.49C541.289 1731.72 581.922 1695.48 577.792 1656.54C573.662 1617.6 526.332 1590.7 472.079 1596.47C417.825 1602.24 377.192 1638.48 381.322 1677.42C385.452 1716.36 432.781 1743.25 487.035 1737.49Z" fill="url(#paint2_radial_216_2339)"/>
<path opacity="0.3" d="M211.529 1630.93C211.529 1630.93 508.12 1530.95 565.31 1531.72C622.5 1532.49 701.788 1569.88 734.574 1575.99C767.359 1582.1 211.529 1630.93 211.529 1630.93Z" fill="#A15C92"/>
<path opacity="0.8" d="M344.201 1670.7C344.201 1670.7 42.2659 1531.8 -105.65 1528.75C-253.565 1525.7 -126.997 2000.4 -126.997 2000.4L293.873 2017.19L344.191 1670.7H344.201Z" fill="url(#paint3_linear_216_2339)"/>
<path opacity="0.5" d="M498.253 1843.25C633.884 1828.84 735.465 1738.23 725.139 1640.88C714.814 1543.53 596.492 1476.29 460.861 1490.7C325.23 1505.12 223.649 1595.72 233.975 1693.07C244.3 1790.43 362.622 1857.66 498.253 1843.25Z" fill="url(#paint4_radial_216_2339)"/>
<path d="M963.105 1845.21L942.087 1647.26L944.754 1479.15L885.796 1500.51V1512.76C842.77 1520.43 775.84 1533.75 733.435 1548.98C733.435 1548.98 670.91 1528.37 583.611 1552.03C583.611 1552.03 454.546 1522.08 446.974 1520.41C439.501 1518.75 432.349 1517.23 425.806 1515.93L425.786 1504.84L376.987 1487.55L267.191 1531.55V1565.07C243.466 1565.87 222.028 1570.12 213.347 1572.06C210.93 1572.6 209.202 1574.71 209.132 1577.18L208.233 1831.22L267.191 1826.72V1834.78L426.295 1842.67L426.275 1826.37L885.806 1842.5V1853.36L938.67 1863.54L938.97 1844.37L963.115 1845.22L963.105 1845.21Z" fill="#CC9B92"/>
<path d="M569.716 1547.79V1722.04L408.074 1720.6L416.465 1508.1L569.716 1547.79Z" fill="#CCB4B7"/>
<path d="M742.875 1542.23L893.438 1503.56L895.456 1714.72L746.741 1719.29L742.875 1542.23Z" fill="#CCB4B7"/>
<path d="M617.915 1628.38H601.992V1783.56H617.915V1628.38Z" fill="#CCB2A4"/>
<path d="M715.004 1627.62H699.081V1782.8H715.004V1627.62Z" fill="#CCB2A4"/>
<path d="M417.984 1873.92H389.394V1511.66L417.984 1520.82V1873.92Z" fill="#CCB4B7"/>
<path d="M584.2 1546.56V1633.73C584.2 1633.73 685.774 1622.03 734.064 1631.36V1543.85C734.064 1543.85 665.695 1523.5 584.2 1546.56Z" fill="#CCB4B7"/>
<path opacity="0.5" d="M208.482 1655.62V1868.29H925.444V1604.49C925.444 1604.49 565.06 1606.01 208.482 1655.62Z" fill="url(#paint5_linear_216_2339)"/>
<path d="M-53.5541 1837.58C-53.5541 1837.58 755.661 1750.07 983.384 1743.96L997.619 2205.94L-118.616 2189.66L-53.5541 1837.58Z" fill="url(#paint6_linear_216_2339)"/>
<g opacity="0.35">
<path d="M-48.3495 1161.05C37.2512 1177.34 124.29 1186.62 211.489 1186.43C248.9 1186.43 286.311 1185.16 323.602 1182.03C373.37 1178.29 422.659 1169.47 472.557 1167.35C488.37 1167.02 530.716 1165.08 541.065 1177.14C543.193 1179.72 543.333 1183.66 541.565 1186.48C538.908 1190.61 534.003 1192.45 529.647 1194.05C519.498 1198.16 491.277 1200.82 490.119 1213.61C489.599 1216.61 491.337 1219.33 493.575 1221.33C517.13 1240.5 606.028 1246.57 638.983 1248.94C719.909 1253.27 801.044 1255.05 882.07 1253.09C925.554 1251.86 969.438 1249.41 1012.64 1244.33H1012.69L1011.95 1245.17C1011.93 1245.46 1011.71 -128.478 1012.79 -125.759C1012.78 -125.759 -85.5507 -125.759 -85.5707 -125.759C-84.1521 -128.688 -48.839 1161.56 -48.3395 1161.05L-48.3495 1161.05ZM-49.2985 1161.84C-49.6581 1161.42 -85.8304 -126.369 -86.1001 -126.759C-85.1011 -126.229 1013.34 -127.789 1013.27 -126.229C1013.48 -125.919 1013.46 1245.55 1013.61 1245.92L1012.87 1246H1012.82C969.548 1251.05 925.654 1253.46 882.1 1254.64C801.014 1256.52 719.859 1254.64 638.893 1250.23C605.968 1247.82 516.431 1241.64 492.806 1222.16C488.69 1218.73 487.681 1213.42 490.628 1208.88C497.241 1199.15 518.399 1197.17 529.288 1193.07C533.503 1191.55 538.159 1189.82 540.696 1185.96C542.254 1183.47 542.164 1180.04 540.286 1177.74C530.047 1166.07 488.231 1167.85 472.587 1168.17C447.653 1169.03 422.869 1172.01 398.105 1174.98C348.586 1181.17 298.828 1185.9 248.92 1186.96C155.328 1189.6 61.5858 1182.18 -30.5481 1165.53L-39.7585 1163.84L-44.3537 1162.96L-46.6513 1162.51L-47.8001 1162.28C-48.3095 1162.18 -48.839 1162.02 -49.2985 1161.84Z" fill="white"/>
</g>
<path opacity="0.5" d="M-48.819 1161.45C-48.819 1161.45 50.3774 1182.03 157.396 1185.89C312.933 1191.5 387.965 1173.23 455.285 1168.68C486.273 1166.59 540.906 1165.23 542.254 1181.35C543.803 1199.81 489.219 1194.23 489.479 1214.91C489.739 1235.59 583.062 1247.45 665.046 1250.99C761.246 1255.14 900.74 1258.52 1012.78 1245.17V-126.269H-85.5807L-48.819 1161.45Z" fill="url(#paint7_linear_216_2339)"/>
<g opacity="0.35">
<path d="M-72.1547 1015.8C-71.3555 1015.62 -69.5474 1015.78 -68.6983 1015.83L-64.7724 1016.07C-9.74981 1019.13 45.4226 1020.05 100.515 1018.62C136.827 1017.51 174.388 1015.45 210.42 1010.9C251.807 1005.4 294.113 999.55 332.933 983.511C352.163 975.332 371.342 966.183 391.192 959.483C460.829 935.385 534.302 925.666 606.797 914.217C710.598 898.469 814.979 886.08 918.082 866.042C946.213 860.202 974.663 854.343 1001.56 844.184C1013.12 838.034 1019.39 825.485 1024.32 813.826C1039.23 774.52 1042.98 731.994 1046.64 690.398C1059.4 480.477 1041.56 269.986 1024.49 60.7845C1021.41 19.6282 1015.51 -25.4178 1012.78 -64.3243C1012.78 -64.3243 -126.238 -39.8965 -126.238 -39.9065C-124.92 -42.9262 -72.6242 1016.34 -72.1547 1015.78V1015.8ZM-73.1836 1016.81C-73.3834 1016.37 -126.618 -40.4664 -126.768 -40.8764C-125.689 -40.2864 1013.07 -66.3241 1013.28 -64.8542C1031.04 102.401 1044.56 270.176 1050.61 438.29C1053.28 522.343 1054.53 606.605 1048.45 690.548C1044.8 732.334 1041.04 775.02 1026.07 814.546C1021.03 826.595 1014.44 839.544 1002.41 845.904C975.322 856.163 946.722 861.982 918.442 867.842C815.289 887.81 710.828 899.819 606.967 915.367C534.512 926.676 461.009 936.076 391.442 960.193C371.592 966.903 352.482 976.032 333.232 984.241C294.363 1000.36 251.997 1006.35 210.55 1011.92C169.193 1017.13 126.458 1019.33 84.8015 1020.17C34.9136 1021.15 -15.0243 1020.19 -64.8423 1017.5L-68.7782 1017.27L-70.7462 1017.15C-71.5353 1017.11 -72.4244 1016.97 -73.1836 1016.81Z" fill="white"/>
</g>
<path opacity="0.5" d="M-72.6642 1016.31C-72.6642 1016.31 95.1207 1027.82 222.837 1009.88C349.745 992.06 326.569 976.862 427.694 948.444C558.957 911.558 889.602 885.86 999.397 846.184C1109.19 806.507 1012.78 -64.8042 1012.78 -64.8042L-126.238 -40.3764L-72.6642 1016.31Z" fill="url(#paint8_linear_216_2339)"/>
<g opacity="0.35">
<path d="M-85.1911 376.686C128.806 421.452 345.26 454.749 562.753 477.007C615.947 482.226 672.918 487.236 726.222 490.736C804.031 496.015 884.957 499.355 962.955 499.995C992.604 500.215 1024.41 500.025 1054.08 499.355L1063.19 499.185L1067.75 499.095L1070.02 499.055C1070.78 499.055 1071.54 498.865 1072.32 499.625C1071.88 502.795 1051.22 -286.124 1051.42 -285.434C1055.27 -285.174 -88.7874 -265.676 -85.0812 -267.126L-85.1911 376.686ZM-85.9703 377.316L-86.0802 -267.126V-267.616H-85.5907C-85.1712 -267.216 1052.98 -286.834 1052.41 -285.444C1052.14 -285.274 1073.67 501.405 1072.34 500.635C1071.6 501.425 1070.83 501.255 1070.07 501.295L1067.8 501.335C1065.19 501.365 1056.91 501.545 1054.12 501.585C1030.91 502.135 1004.4 502.285 981.176 502.245C878.563 501.985 773.812 496.815 671.529 488.716C465.574 472.097 260.508 443.65 57.3501 406.123C9.55001 397.134 -38.5198 388.035 -85.9703 377.326V377.316Z" fill="white"/>
</g>
<path opacity="0.5" d="M-85.5807 377.006C-85.5807 377.006 531.416 514.844 1072.33 500.135L1051.91 -285.434L-85.5807 -267.126V377.006Z" fill="url(#paint9_linear_216_2339)"/>
<g opacity="0.35">
<path d="M-45.5825 123.029C-44.0041 122.649 -42.9452 122.419 -41.8663 122.439L-38.1802 122.509C-30.4283 122.669 -22.6064 122.809 -14.9644 122.849C118.526 123.879 253.975 116.75 387.086 105.84C408.424 103.781 458.901 99.4011 479.57 97.0713C507.95 93.8616 543.673 90.3819 571.883 86.6822C606.997 82.3626 659.991 75.5532 694.655 70.2137C711.657 67.7139 738.979 63.9843 755.901 61.0346C812.812 52.1454 882.279 39.5565 938.89 28.8075L938.491 29.2974V-57.1548L938.99 -56.6548L-45.9521 -64.2841C-45.3627 -67.5338 -45.4526 123.809 -45.5925 123.049L-45.5825 123.029ZM-46.3017 123.729C-46.2917 123.219 -46.4516 -64.8341 -46.4416 -65.294C-45.9021 -65.414 938.85 -57.5747 939.5 -57.6547V-57.1548C939.5 -56.7348 939.5 29.3374 939.5 29.7174L939.1 29.7974C882.299 40.6964 813.231 53.4052 756.141 62.4344C739.099 65.4241 712.317 69.1838 694.895 71.7536C676.334 74.3933 651.77 78.243 633.559 80.5128C621.402 82.1026 567.418 88.902 556.739 90.2919C534.572 92.9117 502.086 96.2914 479.759 98.8011C459.411 101.121 408.364 105.601 387.246 107.65C264.444 117.839 139.135 124.729 16.0033 125.059C-1.46849 125.119 -20.7484 125.019 -38.2201 124.649C-40.7175 124.579 -44.154 124.729 -46.2917 123.749L-46.3017 123.729Z" fill="white"/>
</g>
<path opacity="0.5" d="M-45.9321 123.379C-45.9321 123.379 389.184 138.087 939.01 29.2873V-57.1749L-45.9321 -64.8042V123.379Z" fill="url(#paint10_linear_216_2339)"/>
<path d="M209.971 673.809C201.859 685.738 188.174 693.587 172.67 693.587C147.776 693.587 127.597 673.379 127.597 648.471C127.597 632.963 135.419 619.284 147.316 611.155C142.411 618.384 139.544 627.113 139.544 636.503C139.544 661.43 159.733 681.618 184.617 681.618C194.017 681.618 202.748 678.739 209.971 673.809Z" fill="white"/>
<path opacity="0.5" d="M317.918 449.079L559.107 300.513" stroke="white" stroke-width="1.5" stroke-miterlimit="10" stroke-linecap="round"/>
<path opacity="0.5" d="M724.434 767.671L870.082 677.959" stroke="white" stroke-width="0.7" stroke-miterlimit="10" stroke-linecap="round"/>
<path opacity="0.5" d="M689.191 789.379L709.889 776.63" stroke="white" stroke-width="0.7" stroke-miterlimit="10" stroke-linecap="round"/>
<path opacity="0.5" d="M82.0543 888.58L202.648 814.296" stroke="white" stroke-width="1.5" stroke-miterlimit="10" stroke-linecap="round"/>
<path opacity="0.7" d="M728.76 291.564L873.469 202.422" stroke="white" stroke-miterlimit="10" stroke-linecap="round"/>
<path opacity="0.3" d="M172.25 110.82L173.988 109.74" stroke="white" stroke-miterlimit="10" stroke-linecap="round"/>
<path opacity="0.3" d="M165.967 114.68L169.243 112.67" stroke="white" stroke-miterlimit="10" stroke-linecap="round"/>
<path opacity="0.3" d="M110.744 148.697L154.639 121.659L160.642 117.959" stroke="white" stroke-miterlimit="10" stroke-linecap="round"/>
<path opacity="0.5" d="M445.245 390.785L637.794 272.185" stroke="white" stroke-miterlimit="10" stroke-linecap="round"/>
</g>
</g>
<defs>
<linearGradient id="paint0_linear_216_2339" x1="458.987" y1="-370.137" x2="460.325" y2="2181.91" gradientUnits="userSpaceOnUse">
<stop stop-color="#152260"/>
<stop offset="0.09" stop-color="#192965"/>
<stop offset="0.23" stop-color="#263E72"/>
<stop offset="0.4" stop-color="#3A6189"/>
<stop offset="0.48" stop-color="#467596"/>
<stop offset="0.53" stop-color="#4B7694"/>
<stop offset="0.58" stop-color="#5A7B90"/>
<stop offset="0.65" stop-color="#74828A"/>
<stop offset="0.72" stop-color="#988D81"/>
<stop offset="0.79" stop-color="#C59A76"/>
<stop offset="0.82" stop-color="#DBA171"/>
<stop offset="0.92" stop-color="#DF8B6B"/>
</linearGradient>
<radialGradient id="paint1_radial_216_2339" cx="0" cy="0" r="1" gradientUnits="userSpaceOnUse" gradientTransform="translate(479.649 1668.69) rotate(-6.06573) scale(197.84 140.417)">
<stop stop-color="#FFB65D"/>
<stop offset="0.1" stop-color="#FFB65D" stop-opacity="0.93"/>
<stop offset="0.3" stop-color="#FFB65D" stop-opacity="0.75"/>
<stop offset="0.59" stop-color="#FFB65D" stop-opacity="0.47"/>
<stop offset="0.94" stop-color="#FFB65D" stop-opacity="0.07"/>
<stop offset="1" stop-color="#FFB65D" stop-opacity="0"/>
</radialGradient>
<radialGradient id="paint2_radial_216_2339" cx="0" cy="0" r="1" gradientUnits="userSpaceOnUse" gradientTransform="translate(283.553 704.459) rotate(-6.06573) scale(98.9198 70.2086)">
<stop stop-color="#FFB65D"/>
<stop offset="0.1" stop-color="#FFB65D" stop-opacity="0.93"/>
<stop offset="0.3" stop-color="#FFB65D" stop-opacity="0.75"/>
<stop offset="0.59" stop-color="#FFB65D" stop-opacity="0.47"/>
<stop offset="0.94" stop-color="#FFB65D" stop-opacity="0.07"/>
<stop offset="1" stop-color="#FFB65D" stop-opacity="0"/>
</radialGradient>
<linearGradient id="paint3_linear_216_2339" x1="83.383" y1="1565.38" x2="83.383" y2="1930.19" gradientUnits="userSpaceOnUse">
<stop stop-color="#645166"/>
<stop offset="0.22" stop-color="#624F64" stop-opacity="0.97"/>
<stop offset="0.42" stop-color="#5D4B5E" stop-opacity="0.86"/>
<stop offset="0.6" stop-color="#544455" stop-opacity="0.69"/>
<stop offset="0.77" stop-color="#483A48" stop-opacity="0.44"/>
<stop offset="0.94" stop-color="#392D37" stop-opacity="0.12"/>
<stop offset="1" stop-color="#332931" stop-opacity="0"/>
</linearGradient>
<radialGradient id="paint4_radial_216_2339" cx="0" cy="0" r="1" gradientUnits="userSpaceOnUse" gradientTransform="translate(283.553 704.459) rotate(-6.06573) scale(247.289 175.514)">
<stop stop-color="#FFB65D"/>
<stop offset="0.1" stop-color="#FFB65D" stop-opacity="0.93"/>
<stop offset="0.3" stop-color="#FFB65D" stop-opacity="0.75"/>
<stop offset="0.59" stop-color="#FFB65D" stop-opacity="0.47"/>
<stop offset="0.94" stop-color="#FFB65D" stop-opacity="0.07"/>
<stop offset="1" stop-color="#FFB65D" stop-opacity="0"/>
</radialGradient>
<linearGradient id="paint5_linear_216_2339" x1="566.958" y1="1619.24" x2="566.958" y2="2022.72" gradientUnits="userSpaceOnUse">
<stop stop-color="#CC5C54" stop-opacity="0"/>
<stop offset="0.18" stop-color="#C05B54" stop-opacity="0.11"/>
<stop offset="0.5" stop-color="#A15B56" stop-opacity="0.42"/>
<stop offset="0.93" stop-color="#6E5B59" stop-opacity="0.91"/>
<stop offset="1" stop-color="#665B5A"/>
</linearGradient>
<linearGradient id="paint6_linear_216_2339" x1="439.501" y1="1762.28" x2="439.501" y2="2269.52" gradientUnits="userSpaceOnUse">
<stop stop-color="#C5A598"/>
<stop offset="0.33" stop-color="#C09489"/>
<stop offset="1" stop-color="#B8766F"/>
</linearGradient>
<linearGradient id="paint7_linear_216_2339" x1="463.606" y1="1379.68" x2="463.606" y2="686.978" gradientUnits="userSpaceOnUse">
<stop stop-color="white"/>
<stop offset="0.01" stop-color="white" stop-opacity="0.96"/>
<stop offset="0.05" stop-color="white" stop-opacity="0.78"/>
<stop offset="0.1" stop-color="white" stop-opacity="0.61"/>
<stop offset="0.15" stop-color="white" stop-opacity="0.47"/>
<stop offset="0.2" stop-color="white" stop-opacity="0.34"/>
<stop offset="0.26" stop-color="white" stop-opacity="0.23"/>
<stop offset="0.32" stop-color="white" stop-opacity="0.15"/>
<stop offset="0.4" stop-color="white" stop-opacity="0.08"/>
<stop offset="0.5" stop-color="white" stop-opacity="0.03"/>
<stop offset="0.63" stop-color="white" stop-opacity="0"/>
<stop offset="1" stop-color="white" stop-opacity="0"/>
</linearGradient>
<linearGradient id="paint8_linear_216_2339" x1="462.837" y1="1400.02" x2="462.837" y2="360.057" gradientUnits="userSpaceOnUse">
<stop stop-color="white"/>
<stop offset="0.04" stop-color="white" stop-opacity="0.89"/>
<stop offset="0.1" stop-color="white" stop-opacity="0.71"/>
<stop offset="0.17" stop-color="white" stop-opacity="0.54"/>
<stop offset="0.25" stop-color="white" stop-opacity="0.39"/>
<stop offset="0.33" stop-color="white" stop-opacity="0.27"/>
<stop offset="0.41" stop-color="white" stop-opacity="0.17"/>
<stop offset="0.51" stop-color="white" stop-opacity="0.09"/>
<stop offset="0.62" stop-color="white" stop-opacity="0.04"/>
<stop offset="0.75" stop-color="white" stop-opacity="0"/>
<stop offset="1" stop-color="white" stop-opacity="0"/>
</linearGradient>
<linearGradient id="paint9_linear_216_2339" x1="493.375" y1="636.842" x2="493.375" y2="43.886" gradientUnits="userSpaceOnUse">
<stop stop-color="white"/>
<stop offset="0.04" stop-color="white" stop-opacity="0.89"/>
<stop offset="0.1" stop-color="white" stop-opacity="0.71"/>
<stop offset="0.17" stop-color="white" stop-opacity="0.54"/>
<stop offset="0.25" stop-color="white" stop-opacity="0.39"/>
<stop offset="0.33" stop-color="white" stop-opacity="0.27"/>
<stop offset="0.41" stop-color="white" stop-opacity="0.17"/>
<stop offset="0.51" stop-color="white" stop-opacity="0.09"/>
<stop offset="0.62" stop-color="white" stop-opacity="0.04"/>
<stop offset="0.75" stop-color="white" stop-opacity="0"/>
<stop offset="1" stop-color="white" stop-opacity="0"/>
</linearGradient>
<linearGradient id="paint10_linear_216_2339" x1="446.534" y1="192.163" x2="446.534" y2="-212.141" gradientUnits="userSpaceOnUse">
<stop stop-color="white"/>
<stop offset="0.05" stop-color="white" stop-opacity="0.81"/>
<stop offset="0.1" stop-color="white" stop-opacity="0.64"/>
<stop offset="0.16" stop-color="white" stop-opacity="0.49"/>
<stop offset="0.22" stop-color="white" stop-opacity="0.36"/>
<stop offset="0.28" stop-color="white" stop-opacity="0.24"/>
<stop offset="0.36" stop-color="white" stop-opacity="0.15"/>
<stop offset="0.44" stop-color="white" stop-opacity="0.08"/>
<stop offset="0.54" stop-color="white" stop-opacity="0.04"/>
<stop offset="0.68" stop-color="white" stop-opacity="0"/>
<stop offset="1" stop-color="white" stop-opacity="0"/>
</linearGradient>
<clipPath id="clip0_216_2339">
<rect width="920" height="1994" fill="white"/>
</clipPath>
<clipPath id="clip1_216_2339">
<rect width="920" height="1994" fill="white"/>
</clipPath>
</defs>
</svg>
