<svg width="32" height="32" viewBox="0 0 32 32" fill="none" xmlns="http://www.w3.org/2000/svg">
<mask id="mask0_257_3911" style="mask-type:alpha" maskUnits="userSpaceOnUse" x="0" y="0" width="32" height="32">
<rect width="32" height="32" fill="#D9D9D9"/>
</mask>
<g mask="url(#mask0_257_3911)">
<path d="M21.2667 16.4002L15.6 10.7335C15.4667 10.6002 15.3722 10.4557 15.3167 10.3002C15.2611 10.1446 15.2333 9.97794 15.2333 9.80016C15.2333 9.62238 15.2611 9.45572 15.3167 9.30016C15.3722 9.14461 15.4667 9.00016 15.6 8.86683L21.2667 3.20016C21.4 3.06683 21.5444 2.97238 21.7 2.91683C21.8556 2.86127 22.0222 2.8335 22.2 2.8335C22.3778 2.8335 22.5444 2.86127 22.7 2.91683C22.8556 2.97238 23 3.06683 23.1333 3.20016L28.8 8.86683C28.9333 9.00016 29.0278 9.14461 29.0833 9.30016C29.1389 9.45572 29.1667 9.62238 29.1667 9.80016C29.1667 9.97794 29.1389 10.1446 29.0833 10.3002C29.0278 10.4557 28.9333 10.6002 28.8 10.7335L23.1333 16.4002C23 16.5335 22.8556 16.6279 22.7 16.6835C22.5444 16.7391 22.3778 16.7668 22.2 16.7668C22.0222 16.7668 21.8556 16.7391 21.7 16.6835C21.5444 16.6279 21.4 16.5335 21.2667 16.4002ZM4 13.3335V5.3335C4 4.95572 4.12778 4.63905 4.38333 4.3835C4.63889 4.12794 4.95556 4.00016 5.33333 4.00016H13.3333C13.7111 4.00016 14.0278 4.12794 14.2833 4.3835C14.5389 4.63905 14.6667 4.95572 14.6667 5.3335V13.3335C14.6667 13.7113 14.5389 14.0279 14.2833 14.2835C14.0278 14.5391 13.7111 14.6668 13.3333 14.6668H5.33333C4.95556 14.6668 4.63889 14.5391 4.38333 14.2835C4.12778 14.0279 4 13.7113 4 13.3335ZM17.3333 26.6668V18.6668C17.3333 18.2891 17.4611 17.9724 17.7167 17.7168C17.9722 17.4613 18.2889 17.3335 18.6667 17.3335H26.6667C27.0444 17.3335 27.3611 17.4613 27.6167 17.7168C27.8722 17.9724 28 18.2891 28 18.6668V26.6668C28 27.0446 27.8722 27.3613 27.6167 27.6168C27.3611 27.8724 27.0444 28.0002 26.6667 28.0002H18.6667C18.2889 28.0002 17.9722 27.8724 17.7167 27.6168C17.4611 27.3613 17.3333 27.0446 17.3333 26.6668ZM4 26.6668V18.6668C4 18.2891 4.12778 17.9724 4.38333 17.7168C4.63889 17.4613 4.95556 17.3335 5.33333 17.3335H13.3333C13.7111 17.3335 14.0278 17.4613 14.2833 17.7168C14.5389 17.9724 14.6667 18.2891 14.6667 18.6668V26.6668C14.6667 27.0446 14.5389 27.3613 14.2833 27.6168C14.0278 27.8724 13.7111 28.0002 13.3333 28.0002H5.33333C4.95556 28.0002 4.63889 27.8724 4.38333 27.6168C4.12778 27.3613 4 27.0446 4 26.6668ZM6.66667 12.0002H12V6.66683H6.66667V12.0002ZM22.2333 13.6002L26 9.8335L22.2333 6.06683L18.4667 9.8335L22.2333 13.6002ZM20 25.3335H25.3333V20.0002H20V25.3335ZM6.66667 25.3335H12V20.0002H6.66667V25.3335Z" fill="#292A2E"/>
</g>
</svg>
